<svg width="236" height="67" viewBox="0 0 236 67" fill="none" xmlns="http://www.w3.org/2000/svg">
<rect width="236" height="67" rx="7" fill="#2CA1CA"/>
<path d="M66.708 16.333V21.998C66.708 22.6287 66.5137 23.1347 66.125 23.516C65.7363 23.89 65.223 24.077 64.585 24.077C63.9397 24.077 63.4227 23.8863 63.034 23.505C62.6453 23.1163 62.451 22.5883 62.451 21.921H63.452C63.4593 22.295 63.5547 22.5993 63.738 22.834C63.9287 23.0687 64.211 23.186 64.585 23.186C64.959 23.186 65.2377 23.076 65.421 22.856C65.6043 22.6287 65.696 22.3427 65.696 21.998V16.333H66.708ZM72.156 24.077C71.4447 24.077 70.7957 23.912 70.209 23.582C69.6223 23.2447 69.1567 22.779 68.812 22.185C68.4747 21.5837 68.306 20.909 68.306 20.161C68.306 19.413 68.4747 18.742 68.812 18.148C69.1567 17.5467 69.6223 17.081 70.209 16.751C70.7957 16.4137 71.4447 16.245 72.156 16.245C72.8747 16.245 73.5273 16.4137 74.114 16.751C74.7007 17.081 75.1627 17.543 75.5 18.137C75.8373 18.731 76.006 19.4057 76.006 20.161C76.006 20.9163 75.8373 21.591 75.5 22.185C75.1627 22.779 74.7007 23.2447 74.114 23.582C73.5273 23.912 72.8747 24.077 72.156 24.077ZM72.156 23.208C72.6913 23.208 73.1717 23.0833 73.597 22.834C74.0297 22.5847 74.367 22.229 74.609 21.767C74.8583 21.305 74.983 20.7697 74.983 20.161C74.983 19.545 74.8583 19.0097 74.609 18.555C74.367 18.093 74.0333 17.7373 73.608 17.488C73.1827 17.2387 72.6987 17.114 72.156 17.114C71.6133 17.114 71.1293 17.2387 70.704 17.488C70.2787 17.7373 69.9413 18.093 69.692 18.555C69.45 19.0097 69.329 19.545 69.329 20.161C69.329 20.7697 69.45 21.305 69.692 21.767C69.9413 22.229 70.2787 22.5847 70.704 22.834C71.1367 23.0833 71.6207 23.208 72.156 23.208ZM78.3285 16.333V24H77.3275V16.333H78.3285ZM86.0625 24H85.0615L81.0355 17.895V24H80.0345V16.322H81.0355L85.0615 22.416V16.322H86.0625V24ZM96.7295 24H95.7285L91.7025 17.895V24H90.7015V16.322H91.7025L95.7285 22.416V16.322H96.7295V24ZM101.912 24.077C101.201 24.077 100.552 23.912 99.9649 23.582C99.3782 23.2447 98.9125 22.779 98.5679 22.185C98.2305 21.5837 98.0619 20.909 98.0619 20.161C98.0619 19.413 98.2305 18.742 98.5679 18.148C98.9125 17.5467 99.3782 17.081 99.9649 16.751C100.552 16.4137 101.201 16.245 101.912 16.245C102.631 16.245 103.283 16.4137 103.87 16.751C104.457 17.081 104.919 17.543 105.256 18.137C105.593 18.731 105.762 19.4057 105.762 20.161C105.762 20.9163 105.593 21.591 105.256 22.185C104.919 22.779 104.457 23.2447 103.87 23.582C103.283 23.912 102.631 24.077 101.912 24.077ZM101.912 23.208C102.447 23.208 102.928 23.0833 103.353 22.834C103.786 22.5847 104.123 22.229 104.365 21.767C104.614 21.305 104.739 20.7697 104.739 20.161C104.739 19.545 104.614 19.0097 104.365 18.555C104.123 18.093 103.789 17.7373 103.364 17.488C102.939 17.2387 102.455 17.114 101.912 17.114C101.369 17.114 100.885 17.2387 100.46 17.488C100.035 17.7373 99.6972 18.093 99.4479 18.555C99.2059 19.0097 99.0849 19.545 99.0849 20.161C99.0849 20.7697 99.2059 21.305 99.4479 21.767C99.6972 22.229 100.035 22.5847 100.46 22.834C100.893 23.0833 101.377 23.208 101.912 23.208ZM116.719 16.333L114.497 24H113.375L111.593 17.829L109.745 24L108.634 24.011L106.489 16.333H107.556L109.228 22.834L111.076 16.333H112.198L113.958 22.812L115.641 16.333H116.719Z" fill="white"/>
<path d="M73.56 39.36C73.56 40.1067 73.38 40.8067 73.02 41.46C72.6733 42.1133 72.12 42.64 71.36 43.04C70.6133 43.44 69.6667 43.64 68.52 43.64H66.18V49H63.38V35.04H68.52C69.6 35.04 70.52 35.2267 71.28 35.6C72.04 35.9733 72.6067 36.4867 72.98 37.14C73.3667 37.7933 73.56 38.5333 73.56 39.36ZM68.4 41.38C69.1733 41.38 69.7467 41.2067 70.12 40.86C70.4933 40.5 70.68 40 70.68 39.36C70.68 38 69.92 37.32 68.4 37.32H66.18V41.38H68.4ZM74.828 43.42C74.828 42.3 75.048 41.3067 75.488 40.44C75.9413 39.5733 76.548 38.9067 77.308 38.44C78.0813 37.9733 78.9413 37.74 79.888 37.74C80.7146 37.74 81.4346 37.9067 82.048 38.24C82.6746 38.5733 83.1746 38.9933 83.548 39.5V37.92H86.368V49H83.548V47.38C83.188 47.9 82.688 48.3333 82.048 48.68C81.4213 49.0133 80.6946 49.18 79.868 49.18C78.9346 49.18 78.0813 48.94 77.308 48.46C76.548 47.98 75.9413 47.3067 75.488 46.44C75.048 45.56 74.828 44.5533 74.828 43.42ZM83.548 43.46C83.548 42.78 83.4146 42.2 83.148 41.72C82.8813 41.2267 82.5213 40.8533 82.068 40.6C81.6146 40.3333 81.128 40.2 80.608 40.2C80.088 40.2 79.608 40.3267 79.168 40.58C78.728 40.8333 78.368 41.2067 78.088 41.7C77.8213 42.18 77.688 42.7533 77.688 43.42C77.688 44.0867 77.8213 44.6733 78.088 45.18C78.368 45.6733 78.728 46.0533 79.168 46.32C79.6213 46.5867 80.1013 46.72 80.608 46.72C81.128 46.72 81.6146 46.5933 82.068 46.34C82.5213 46.0733 82.8813 45.7 83.148 45.22C83.4146 44.7267 83.548 44.14 83.548 43.46ZM99.7027 37.92L92.8427 54.24H89.8627L92.2627 48.72L87.8227 37.92H90.9627L93.8227 45.66L96.7227 37.92H99.7027ZM109.832 35.04V37.3H104.012V40.88H108.472V43.1H104.012V49H101.212V35.04H109.832ZM116.738 49.18C115.671 49.18 114.711 48.9467 113.858 48.48C113.004 48 112.331 47.3267 111.838 46.46C111.358 45.5933 111.118 44.5933 111.118 43.46C111.118 42.3267 111.364 41.3267 111.858 40.46C112.364 39.5933 113.051 38.9267 113.918 38.46C114.784 37.98 115.751 37.74 116.818 37.74C117.884 37.74 118.851 37.98 119.718 38.46C120.584 38.9267 121.264 39.5933 121.758 40.46C122.264 41.3267 122.518 42.3267 122.518 43.46C122.518 44.5933 122.258 45.5933 121.737 46.46C121.231 47.3267 120.538 48 119.658 48.48C118.791 48.9467 117.818 49.18 116.738 49.18ZM116.738 46.74C117.244 46.74 117.718 46.62 118.158 46.38C118.611 46.1267 118.971 45.7533 119.238 45.26C119.504 44.7667 119.638 44.1667 119.638 43.46C119.638 42.4067 119.358 41.6 118.798 41.04C118.251 40.4667 117.578 40.18 116.778 40.18C115.978 40.18 115.304 40.4667 114.758 41.04C114.224 41.6 113.958 42.4067 113.958 43.46C113.958 44.5133 114.218 45.3267 114.738 45.9C115.271 46.46 115.938 46.74 116.738 46.74ZM127.371 39.64C127.731 39.0533 128.198 38.5933 128.771 38.26C129.358 37.9267 130.025 37.76 130.771 37.76V40.7H130.031C129.151 40.7 128.485 40.9067 128.031 41.32C127.591 41.7333 127.371 42.4533 127.371 43.48V49H124.571V37.92H127.371V39.64ZM131.937 43.46C131.937 42.3133 132.171 41.3133 132.637 40.46C133.104 39.5933 133.751 38.9267 134.577 38.46C135.404 37.98 136.351 37.74 137.417 37.74C138.791 37.74 139.924 38.0867 140.817 38.78C141.724 39.46 142.331 40.42 142.637 41.66H139.617C139.457 41.18 139.184 40.8067 138.797 40.54C138.424 40.26 137.957 40.12 137.397 40.12C136.597 40.12 135.964 40.4133 135.497 41C135.031 41.5733 134.797 42.3933 134.797 43.46C134.797 44.5133 135.031 45.3333 135.497 45.92C135.964 46.4933 136.597 46.78 137.397 46.78C138.531 46.78 139.271 46.2733 139.617 45.26H142.637C142.331 46.46 141.724 47.4133 140.817 48.12C139.911 48.8267 138.777 49.18 137.417 49.18C136.351 49.18 135.404 48.9467 134.577 48.48C133.751 48 133.104 47.3333 132.637 46.48C132.171 45.6133 131.937 44.6067 131.937 43.46ZM154.989 43.22C154.989 43.62 154.962 43.98 154.909 44.3H146.809C146.875 45.1 147.155 45.7267 147.649 46.18C148.142 46.6333 148.749 46.86 149.469 46.86C150.509 46.86 151.249 46.4133 151.689 45.52H154.709C154.389 46.5867 153.775 47.4667 152.869 48.16C151.962 48.84 150.849 49.18 149.529 49.18C148.462 49.18 147.502 48.9467 146.649 48.48C145.809 48 145.149 47.3267 144.669 46.46C144.202 45.5933 143.969 44.5933 143.969 43.46C143.969 42.3133 144.202 41.3067 144.669 40.44C145.135 39.5733 145.789 38.9067 146.629 38.44C147.469 37.9733 148.435 37.74 149.529 37.74C150.582 37.74 151.522 37.9667 152.349 38.42C153.189 38.8733 153.835 39.52 154.289 40.36C154.755 41.1867 154.989 42.14 154.989 43.22ZM152.089 42.42C152.075 41.7 151.815 41.1267 151.309 40.7C150.802 40.26 150.182 40.04 149.449 40.04C148.755 40.04 148.169 40.2533 147.689 40.68C147.222 41.0933 146.935 41.6733 146.829 42.42H152.089ZM180.458 35.04L176.558 49H173.258L170.638 39.06L167.898 49L164.618 49.02L160.858 35.04H163.858L166.318 45.88L169.158 35.04H172.278L174.958 45.82L177.438 35.04H180.458ZM192.586 43.22C192.586 43.62 192.56 43.98 192.506 44.3H184.406C184.473 45.1 184.753 45.7267 185.246 46.18C185.74 46.6333 186.346 46.86 187.066 46.86C188.106 46.86 188.846 46.4133 189.286 45.52H192.306C191.986 46.5867 191.373 47.4667 190.466 48.16C189.56 48.84 188.446 49.18 187.126 49.18C186.06 49.18 185.1 48.9467 184.246 48.48C183.406 48 182.746 47.3267 182.266 46.46C181.8 45.5933 181.566 44.5933 181.566 43.46C181.566 42.3133 181.8 41.3067 182.266 40.44C182.733 39.5733 183.386 38.9067 184.226 38.44C185.066 37.9733 186.033 37.74 187.126 37.74C188.18 37.74 189.12 37.9667 189.946 38.42C190.786 38.8733 191.433 39.52 191.886 40.36C192.353 41.1867 192.586 42.14 192.586 43.22ZM189.686 42.42C189.673 41.7 189.413 41.1267 188.906 40.7C188.4 40.26 187.78 40.04 187.046 40.04C186.353 40.04 185.766 40.2533 185.286 40.68C184.82 41.0933 184.533 41.6733 184.426 42.42H189.686ZM197.43 39.54C197.79 39.0067 198.283 38.5733 198.91 38.24C199.55 37.9067 200.277 37.74 201.09 37.74C202.037 37.74 202.89 37.9733 203.65 38.44C204.423 38.9067 205.03 39.5733 205.47 40.44C205.923 41.2933 206.15 42.2867 206.15 43.42C206.15 44.5533 205.923 45.56 205.47 46.44C205.03 47.3067 204.423 47.98 203.65 48.46C202.89 48.94 202.037 49.18 201.09 49.18C200.263 49.18 199.537 49.02 198.91 48.7C198.297 48.3667 197.803 47.94 197.43 47.42V49H194.63V34.2H197.43V39.54ZM203.29 43.42C203.29 42.7533 203.15 42.18 202.87 41.7C202.603 41.2067 202.243 40.8333 201.79 40.58C201.35 40.3267 200.87 40.2 200.35 40.2C199.843 40.2 199.363 40.3333 198.91 40.6C198.47 40.8533 198.11 41.2267 197.83 41.72C197.563 42.2133 197.43 42.7933 197.43 43.46C197.43 44.1267 197.563 44.7067 197.83 45.2C198.11 45.6933 198.47 46.0733 198.91 46.34C199.363 46.5933 199.843 46.72 200.35 46.72C200.87 46.72 201.35 46.5867 201.79 46.32C202.243 46.0533 202.603 45.6733 202.87 45.18C203.15 44.6867 203.29 44.1 203.29 43.42Z" fill="white"/>
<path d="M39.474 35.3267H19.509V28.7653H39.474" fill="white"/>
<path d="M45.491 20.6033H19.652V14.0312H45.491" fill="white"/>
<path d="M30.025 48.9689H19.63V42.4075H30.025" fill="white"/>
</svg>
